<svg xmlns="http://www.w3.org/2000/svg" width="24" height="24" viewBox="-1 -.5 20 23">
  <path d="M0 0h24v24H0V0z" fill="none"/>
  <path d="M267.986,24.506A9.112,9.112,0,0,0,256.337,26c-3.663,4.415-2.244,10.88-.242,15.727.505,1.221,1.335,3.2,2.917,3.224a2.3,2.3,0,0,0,2.108-1.462,2.7,2.7,0,0,0,.01-1.541c-.087-.339-.306-.791.051-1.056.413-.308,1.312-.023,1.779-.011a8.067,8.067,0,0,0,1.669-.142,8.889,8.889,0,0,0,2.694-.971,8.946,8.946,0,0,0,.663-15.257" transform="translate(-254.069 -23)"/>
</svg>
